:SAMPLES-PER-SECOND 30
:FULLY-SPECIFIED
:DEGREES
91
root  -11.0054 36.5372 -3.03501 -179.641 76.2219 -174.645
RightUpLeg  -27.5313 -6.37058 -2.33018
RightLeg  34.8526 -6.34929 -4.98494
RightFoot  -4.69753 -0.758022 12.4617
RightToes  -5.8209e-011 0 -3.6325e-017
Spine  22.3043 1.46625 -7.38431
Spine1  20.3173 1.76756 -5.19056
HEad  -41.8963 44.5907 -27.9108
LeftShoulder1  1.80074 -4.81132 -14.8019
LeftArm  -2.44957 -14.1499 -66.3257
LeftForeArm  -44.3617 -53.0677 -17.6112
LeftHand  -1.02841 2.04749 35.0472
RightShoulder  0.982372 1.21337 13.9798
RightArm  -1.79774 -2.49949 63.3472
RightForeArm  11.1639 49.8332 12.4848
RightHand  -1.16987 4.62977 -13.7764
LeftUpLeg  -13.3505 3.43993 1.27443
LeftLeg  46.2223 5.63334 6.694
LeftFoot  -26.76 -0.264799 -3.14358
LeftToes  -3.91115e-011 -2.2622e-010 9.51032e-012
92
root  -10.8693 36.306 -3.07717 179.905 77.0059 -174.349
RightUpLeg  -27.6921 -5.72245 -2.3293
RightLeg  36.8951 -5.93531 -5.02452
RightFoot  -5.7371 -0.660308 12.6425
RightToes  -5.8209e-011 0 -3.6325e-017
Spine  21.8473 1.38162 -7.77781
Spine1  20.8989 1.52519 -4.92205
HEad  -41.8638 45.0096 -27.8009
LeftShoulder1  1.81383 -4.87564 -14.7912
LeftArm  -2.59976 -14.4154 -66.9051
LeftForeArm  -47.7802 -47.5162 -14.6738
LeftHand  -0.964801 2.19023 34.4091
RightShoulder  0.973977 1.1546 14.0721
RightArm  -1.54901 -2.16451 63.8732
RightForeArm  10.985 49.014 12.1201
RightHand  -1.17299 4.63793 -13.8015
LeftUpLeg  -12.8291 3.72259 1.33726
LeftLeg  47.7338 5.79044 7.22719
LeftFoot  -27.9116 -0.340496 -3.49122
LeftToes  -3.91115e-011 -2.2622e-010 9.51032e-012
93
root  -10.695 36.1052 -3.12851 178.742 77.6679 -174.772
RightUpLeg  -27.6854 -5.12098 -2.5162
RightLeg  38.8086 -5.57356 -5.0589
RightFoot  -6.79358 -0.552218 12.6846
RightToes  -5.8209e-011 0 -3.6325e-017
Spine  21.1226 1.25011 -8.33127
Spine1  21.6997 1.19669 -4.59626
HEad  -41.323 45.1479 -27.1604
LeftShoulder1  1.81081 -4.87635 -14.7493
LeftArm  -2.64688 -15.4221 -67.6825
LeftForeArm  -54.3544 -41.2884 -12.1849
LeftHand  -0.821124 2.71804 35.0929
RightShoulder  0.956355 1.06447 14.1028
RightArm  -1.11419 -1.82823 64.4692
RightForeArm  10.3721 48.0226 11.7268
RightHand  -1.18647 4.65044 -13.9383
LeftUpLeg  -12.0992 4.05836 1.24688
LeftLeg  48.9211 5.91521 7.67709
LeftFoot  -28.906 -0.396915 -3.69461
LeftToes  -3.91115e-011 -2.2622e-010 9.51032e-012
94
root  -10.4828 35.9651 -3.1873 177.125 78.2396 -175.674
RightUpLeg  -27.3994 -4.57165 -2.78208
RightLeg  40.3219 -5.27705 -5.06103
RightFoot  -7.69628 -0.450668 12.4628
RightToes  -5.8209e-011 0 -3.6325e-017
Spine  20.0581 1.07874 -8.81112
Spine1  22.6746 0.905519 -4.35396
HEad  -39.8161 44.6746 -25.285
LeftShoulder1  1.80329 -4.96245 -14.4124
LeftArm  -2.79086 -17.3154 -68.8715
LeftForeArm  -64.0386 -34.2375 -9.91979
LeftHand  -0.739737 3.0635 36.3016
RightShoulder  0.952325 1.0672 13.9919
RightArm  -0.289752 -1.49517 64.9678
RightForeArm  9.53217 46.7315 11.2427
RightHand  -1.2217 4.83855 -14.0887
LeftUpLeg  -11.0721 4.36857 1.07392
LeftLeg  49.5734 6.06887 8.04064
LeftFoot  -29.7351 -0.449009 -3.87772
LeftToes  -3.91115e-011 -2.2622e-010 9.51032e-012
95
root  -10.2387 35.9219 -3.2511 175.27 78.7206 -176.935
RightUpLeg  -26.7771 -4.07838 -3.0891
RightLeg  41.1271 -5.06923 -5.00939
RightFoot  -8.36731 -0.375738 12.2349
RightToes  -5.8209e-011 0 -3.6325e-017
Spine  18.5526 0.839058 -9.12468
Spine1  23.8037 0.69457 -4.28861
HEad  -37.624 43.0402 -22.0711
LeftShoulder1  1.79643 -5.23435 -13.6009
LeftArm  -3.62536 -19.8745 -70.1823
LeftForeArm  -72.9656 -27.4258 -8.25565
LeftHand  -0.828934 2.9515 38.5551
RightShoulder  0.963004 1.16817 13.7449
RightArm  1.45089 -0.986063 65.2216
RightForeArm  8.79248 45.0888 10.6402
RightHand  -1.23239 5.02696 -13.9632
LeftUpLeg  -9.75662 4.68251 0.883553
LeftLeg  49.4523 6.18555 8.15142
LeftFoot  -30.3116 -0.506897 -4.12551
LeftToes  -3.91115e-011 -2.2622e-010 9.51032e-012
96
root  -9.9598 36.0169 -3.31691 173.15 79.1379 -178.674
RightUpLeg  -25.7648 -3.58549 -3.46103
RightLeg  40.9301 -4.9564 -4.87168
RightFoot  -8.61245 -0.350409 12.1987
RightToes  -5.8209e-011 0 -3.6325e-017
Spine  16.6099 0.521426 -9.45598
Spine1  24.9249 0.491158 -4.32422
HEad  -35.4618 40.1703 -18.3339
LeftShoulder1  1.75028 -5.51845 -12.3207
LeftArm  -7.63475 -22.6828 -71.1483
LeftForeArm  -76.1303 -22.2414 -8.30902
LeftHand  -0.99505 2.78024 42.9149
RightShoulder  0.964194 1.26476 13.3079
RightArm  4.55169 -0.0987934 65.2951
RightForeArm  8.0044 43.1859 9.98378
RightHand  -1.16058 4.90555 -13.3175
LeftUpLeg  -8.16547 5.12402 0.692273
LeftLeg  48.3342 6.23334 7.90327
LeftFoot  -30.3903 -0.554584 -4.39547
LeftToes  -3.91115e-011 -2.2622e-010 9.51032e-012
97
root  -9.63583 36.2788 -3.38986 171.228 79.5275 179.579
RightUpLeg  -24.2341 -3.23386 -3.7812
RightLeg  39.4627 -4.8855 -4.57218
RightFoot  -8.09122 -0.400812 12.1419
RightToes  -5.8209e-011 0 -3.6325e-017
Spine  14.321 0.111824 -9.78976
Spine1  25.8047 0.24074 -4.37469
HEad  -33.492 36.8014 -14.9342
LeftShoulder1  1.61004 -5.48449 -10.6663
LeftArm  -14.6022 -25.9171 -71.8286
LeftForeArm  -73.0915 -18.8477 -9.36208
LeftHand  -1.14959 2.63177 46.6978
RightShoulder  0.935575 1.29738 12.4919
RightArm  8.68681 0.980865 65.3956
RightForeArm  6.43652 41.4674 9.48294
RightHand  -1.02143 4.46502 -12.266
LeftUpLeg  -6.20585 5.69129 0.578004
LeftLeg  46.0438 6.30606 7.39228
LeftFoot  -29.8289 -0.569009 -4.59819
LeftToes  -3.91115e-011 -2.2622e-010 9.51032e-012
98
root  -9.26763 36.7047 -3.47921 170.591 79.76 178.957
RightUpLeg  -22.0563 -3.52511 -3.87709
RightLeg  36.5336 -4.71053 -3.99954
RightFoot  -6.68484 -0.529467 11.8665
RightToes  -5.8209e-011 0 -3.6325e-017
Spine  11.7822 -0.418976 -9.743
Spine1  26.288 -0.0440463 -4.45093
HEad  -31.3194 33.7156 -12.0214
LeftShoulder1  1.37866 -5.02973 -8.70632
LeftArm  -18.295 -30.5031 -72.6615
LeftForeArm  -70.7199 -17.214 -9.0093
LeftHand  -1.2545 2.38473 46.6347
RightShoulder  0.878777 1.30259 11.1514
RightArm  12.6714 1.5512 65.5075
RightForeArm  3.60158 40.8597 9.45914
RightHand  -0.894165 3.92929 -11.3732
LeftUpLeg  -3.81317 6.13136 0.670953
LeftLeg  42.4724 6.45371 6.7016
LeftFoot  -28.6789 -0.540023 -4.67074
LeftToes  -3.91115e-011 -2.2622e-010 9.51032e-012
99
root  -8.87754 37.26 -3.57292 171.444 79.5036 179.61
RightUpLeg  -19.3181 -4.80825 -3.84817
RightLeg  32.2199 -4.30747 -3.16704
RightFoot  -4.58887 -0.712172 11.503
RightToes  -5.8209e-011 0 -3.6325e-017
Spine  9.22378 -1.05152 -9.30732
Spine1  26.1485 -0.437098 -4.4594
HEad  -28.8008 31.0455 -9.35874
LeftShoulder1  1.12015 -4.39737 -6.49487
LeftArm  -18.5658 -36.975 -73.2529
LeftForeArm  -72.1425 -17.7244 -8.0298
LeftHand  -1.33143 2.12479 45.8233
RightShoulder  0.811953 1.33979 9.44968
RightArm  15.3365 0.955111 65.2075
RightForeArm  0.175023 42.2448 10.1644
RightHand  -0.840639 3.41088 -11.309
LeftUpLeg  -1.18353 6.14471 0.940601
LeftLeg  37.7095 6.47759 5.73774
LeftFoot  -26.8426 -0.473395 -4.65934
LeftToes  -3.91115e-011 -2.2622e-010 9.51032e-012
100
root  -8.50249 37.8909 -3.63685 172.412 78.5601 -179.955
RightUpLeg  -16.4431 -6.62665 -3.99347
RightLeg  27.0252 -3.8588 -2.36042
RightFoot  -1.86285 -0.940147 11.1565
RightToes  -5.8209e-011 0 -3.6325e-017
Spine  7.19866 -1.75729 -9.26408
Spine1  24.8981 -1.19732 -4.06132
HEad  -26.2234 28.7866 -6.98763
LeftShoulder1  0.87602 -3.77081 -4.0924
LeftArm  -17.3894 -44.7404 -72.7152
LeftForeArm  -78.1642 -21.6285 -7.36196
LeftHand  -1.89569 1.49442 52.0175
RightShoulder  0.758722 1.44383 7.84102
RightArm  16.5662 -0.685948 64.0277
RightForeArm  -2.48457 45.6544 11.6496
RightHand  -0.850264 2.89662 -12.1057
LeftUpLeg  1.22078 5.68159 1.15189
LeftLeg  32.2479 6.10154 4.50511
LeftFoot  -23.9657 -0.385207 -4.78436
LeftToes  -3.91115e-011 -2.2622e-010 9.51032e-012
101
root  -8.17805 38.532 -3.65922 172.724 77.2295 179.438
RightUpLeg  -14.0359 -8.06618 -4.34836
RightLeg  21.73 -3.75987 -1.86745
RightFoot  1.6846 -1.21865 10.7536
RightToes  -5.8209e-011 0 -3.6325e-017
Spine  6.34661 -2.58893 -10.276
Spine1  22.0635 -2.56862 -2.92689
HEad  -23.8699 27.5213 -5.26516
LeftShoulder1  0.614049 -2.83878 -1.39896
LeftArm  -19.9499 -52.7998 -70.0443
LeftForeArm  -80.1537 -28.2325 -8.23703
LeftHand  -3.50807 -0.478616 63.2766
RightShoulder  0.73255 1.62556 6.64852
RightArm  17.0756 -2.48362 61.9044
RightForeArm  -3.80238 50.2795 13.8483
RightHand  -0.8483 2.36154 -12.8698
LeftUpLeg  2.90723 4.97708 1.14698
LeftLeg  26.9723 5.4311 3.34545
LeftFoot  -20.0013 -0.278669 -5.27882
LeftToes  -3.91115e-011 -2.2622e-010 9.51032e-012
102
root  -7.91091 39.1171 -3.67475 173.06 76.1637 178.563
RightUpLeg  -12.4493 -8.66989 -4.70593
RightLeg  16.9645 -4.05211 -1.5354
RightFoot  5.91838 -1.55357 10.4735
RightToes  -5.8209e-011 0 -3.6325e-017
Spine  6.85341 -3.53123 -12.0354
Spine1  17.6431 -4.43716 -1.00276
HEad  -21.7155 27.8967 -4.31148
LeftShoulder1  0.309979 -1.03971 1.9281
LeftArm  -26.841 -60.3383 -65.0633
LeftForeArm  -72.4953 -35.0283 -10.2036
LeftHand  -4.37827 -1.68678 64.455
RightShoulder  0.72425 1.86769 5.74384
RightArm  17.3027 -3.65662 59.0921
RightForeArm  -4.24312 55.3404 16.8192
RightHand  -0.778257 1.76896 -12.7548
LeftUpLeg  3.72536 4.41609 1.01374
LeftLeg  22.6347 4.93437 2.59775
LeftFoot  -15.5948 -0.132467 -6.09265
LeftToes  -3.91115e-011 -2.2622e-010 9.51032e-012
103
root  -7.6697 39.6039 -3.72408 173.686 75.9061 177.938
RightUpLeg  -11.47 -8.419 -5.08334
RightLeg  12.9222 -4.40399 -0.942099
RightFoot  10.1261 -1.97716 10.7615
RightToes  -5.8209e-011 0 -3.6325e-017
Spine  8.31221 -4.3237 -13.7685
Spine1  12.1594 -6.23919 1.52231
HEad  -19.5214 29.6003 -3.79253
LeftShoulder1  0.0615172 1.66299 6.05093
LeftArm  -37.8094 -66.6512 -56.7036
LeftForeArm  -62.4436 -39.7185 -11.705
LeftHand  -2.19218 0.542154 46.838
RightShoulder  0.707974 2.1274 4.71111
RightArm  17.1463 -4.20917 55.8465
RightForeArm  -4.18175 60.5368 20.9287
RightHand  -0.66461 1.09365 -12.012
LeftUpLeg  4.10542 4.34796 0.904437
LeftLeg  19.2678 4.9029 2.20461
LeftFoot  -11.5534 0.0558813 -6.94318
LeftToes  -3.91115e-011 -2.2622e-010 9.51032e-012
104
root  -7.4308 39.9692 -3.80982 173.993 76.6051 177.268
RightUpLeg  -10.7505 -7.9933 -5.45838
RightLeg  9.70222 -3.86214 -0.132813
RightFoot  13.543 -2.48629 11.6588
RightToes  -5.8209e-011 0 -3.6325e-017
Spine  10.0547 -4.63963 -15.0451
Spine1  6.49487 -7.35093 4.25496
HEad  -17.202 31.5583 -3.32813
LeftShoulder1  0.00655087 4.504 10.4852
LeftArm  -54.2995 -70.5273 -42.5711
LeftForeArm  -59.1925 -41.3362 -12.2665
LeftHand  -0.0797637 4.72862 28.3333
RightShoulder  0.659269 2.34226 3.23709
RightArm  16.4524 -4.52582 52.4148
RightForeArm  -3.14419 65.5892 26.7021
RightHand  -0.568901 0.37133 -11.5412
LeftUpLeg  4.61759 4.61686 0.833975
LeftLeg  16.6002 5.49272 1.89105
LeftFoot  -8.30156 0.253088 -7.67413
LeftToes  -3.91115e-011 -2.2622e-010 9.51032e-012
105
root  -7.19179 40.2191 -3.90881 173.388 77.9652 176.088
RightUpLeg  -10.1752 -7.66598 -5.76493
RightLeg  7.46165 -2.39624 0.505067
RightFoot  15.9133 -2.96298 12.6401
RightToes  -5.8209e-011 0 -3.6325e-017
Spine  11.4556 -4.49412 -15.8516
Spine1  1.72989 -7.65371 6.67606
HEad  -15.1926 33.0433 -2.93338
LeftShoulder1  0.124851 6.60789 14.3565
LeftArm  -71.6312 -70.7183 -25.3685
LeftForeArm  -58.4883 -40.4468 -11.9353
LeftHand  0.191522 6.30582 22.226
RightShoulder  0.572285 2.43204 1.36709
RightArm  15.2299 -4.64194 49.0974
RightForeArm  -0.151288 69.9921 34.4696
RightHand  -0.500798 -0.349608 -11.5509
LeftUpLeg  5.45836 4.80073 0.697652
LeftLeg  14.469 6.69558 1.54682
LeftFoot  -5.86697 0.432094 -8.30013
LeftToes  -3.91115e-011 -2.2622e-010 9.51032e-012
